<?xml version="1.0" encoding="utf-8"?>
<!-- Generator: Adobe Illustrator 17.1.0, SVG Export Plug-In . SVG Version: 6.00 Build 0)  -->
<!DOCTYPE svg PUBLIC "-//W3C//DTD SVG 1.1//EN" "http://www.w3.org/Graphics/SVG/1.1/DTD/svg11.dtd">
<svg version="1.1" id="Layer_1" xmlns="http://www.w3.org/2000/svg" xmlns:xlink="http://www.w3.org/1999/xlink" x="0px" y="0px"
	 viewBox="269.3 0 595.3 595.3" enable-background="new 269.3 0 595.3 595.3" xml:space="preserve">
<polygon fill="#5D6D7E" points="624.1,389 638.8,403.7 655.6,420.5 661.9,426.8 695.5,393.2 657.7,355.4 "/>
<path fill="#441E02" d="M729.1,393.2l115.5,115.5c8.4,8.4,13.6,21,13.6,33.6c0,13.6-5.2,25.2-13.6,33.6c-8.4,8.4-21,13.6-33.6,13.6
	s-25.2-5.2-33.6-13.6L661.9,460.4L729.1,393.2z"/>
<path fill="#E8A103" d="M713.4,408.9L713.4,408.9l9.4-9.4L838.3,515c7.3,7.3,11.5,16.8,11.5,27.3s-4.2,19.9-11.5,27.3
	c-1,1-3.1,2.1-4.2,2.1c-2.1,0-3.1-1-4.2-2.1c-2.1-2.1-2.1-7.3,0-9.4c5.2-4.2,7.3-11.5,7.3-17.8c0-7.3-2.1-13.6-7.3-17.8L713.4,408.9
	z"/>
<g>
	<path fill="#34495E" d="M661.9,460.4l68.2-68.2l-5.2-5.2c-3.1-3.1-7.3-5.2-11.5-5.2c-4.2,0-8.4,2.1-11.5,5.2L657.7,431
		c-3.1,3.1-5.2,7.3-5.2,11.5c0,4.2,2.1,8.4,5.2,11.5L661.9,460.4z"/>
	<path fill="#34495E" d="M275.6,223.1c0-119.7,97.6-217.3,217.3-217.3s217.3,97.6,217.3,217.3s-97.6,217.3-217.3,217.3
		C372.2,440.4,275.6,342.8,275.6,223.1z"/>
</g>
<path fill="#5D6D7E" d="M491.9,416.3C599,416.3,685,330.2,685,223.1C685,116,599,29.9,491.9,29.9S298.7,116,298.7,223.1
	C298.7,330.2,385.8,416.3,491.9,416.3z"/>
<path fill="#CEE2F2" d="M491.9,401.6c98.7,0,177.4-79.8,177.4-177.4S589.5,46.7,491.9,46.7c-97.6,0-177.4,79.8-177.4,177.4
	C314.4,321.8,394.2,401.6,491.9,401.6z"/>
<g>
	<path fill="#FFFFFF" d="M497.1,74c-3.1-4.2-8.4-7.3-13.6-7.3c-24.1,1-48.3,8.4-69.3,21c-7.3,4.2-10.5,13.6-5.2,22
		c4.2,7.3,13.6,10.5,21,5.2c16.8-9.4,35.7-15.7,54.6-16.8c8.4,0,15.7-7.3,14.7-16.8C499.2,79.3,498.2,76.1,497.1,74z"/>
	<path fill="#FFFFFF" d="M396.3,126.5c-1-1-2.1-2.1-3.1-3.1c-6.3-5.2-16.8-4.2-22,2.1c-15.7,19.9-27.3,43-31.5,68.2
		c-5.2,29.4-3.1,59.8,8.4,88.2c3.1,8.4,12.6,11.5,21,8.4c8.4-3.1,11.5-12.6,8.4-19.9c-9.4-22-11.5-46.2-7.3-70.3
		c4.2-19.9,12.6-38.8,25.2-54.6C399.5,139.1,399.5,131.8,396.3,126.5z"/>
</g>
</svg>
