<?xml version="1.0" encoding="UTF-8" standalone="no"?>
<!-- Created with Inkscape (http://www.inkscape.org/) -->

<svg
   xmlns:dc="http://purl.org/dc/elements/1.1/"
   xmlns:cc="http://creativecommons.org/ns#"
   xmlns:rdf="http://www.w3.org/1999/02/22-rdf-syntax-ns#"
   xmlns:svg="http://www.w3.org/2000/svg"
   xmlns="http://www.w3.org/2000/svg"
   xmlns:sodipodi="http://sodipodi.sourceforge.net/DTD/sodipodi-0.dtd"
   xmlns:inkscape="http://www.inkscape.org/namespaces/inkscape"
   width="210mm"
   height="297mm"
   viewBox="0 0 210 297"
   version="1.1"
   id="svg8"
   inkscape:version="0.92.1 r15371"
   sodipodi:docname="loupeB.svg">
  <defs
     id="defs2" />
  <sodipodi:namedview
     id="base"
     pagecolor="#ffffff"
     bordercolor="#666666"
     borderopacity="1.0"
     inkscape:pageopacity="0.0"
     inkscape:pageshadow="2"
     inkscape:zoom="0.49497475"
     inkscape:cx="519.00788"
     inkscape:cy="523.18165"
     inkscape:document-units="mm"
     inkscape:current-layer="layer1"
     showgrid="false"
     inkscape:window-width="1920"
     inkscape:window-height="1028"
     inkscape:window-x="-8"
     inkscape:window-y="22"
     inkscape:window-maximized="1" />
  <metadata
     id="metadata5">
    <rdf:RDF>
      <cc:Work
         rdf:about="">
        <dc:format>image/svg+xml</dc:format>
        <dc:type
           rdf:resource="http://purl.org/dc/dcmitype/StillImage" />
        <dc:title></dc:title>
      </cc:Work>
    </rdf:RDF>
  </metadata>
  <g
     inkscape:label="Layer 1"
     inkscape:groupmode="layer"
     id="layer1">
    <g
       id="g4525"
       transform="matrix(0.50917015,0,0,0.50917015,-183.07521,-3.050576)">
      <polygon
         id="polygon4485"
         points="624.1,389 638.8,403.7 655.6,420.5 661.9,426.8 695.5,393.2 657.7,355.4 "
         style="fill:#2e6da4;fill-opacity:1" />
      <path
         id="path4487"
         d="m 729.1,393.2 l 115.5,115.5 c 8.4,8.4 13.6,21 13.6,33.6 c 0,13.6 -5.2,25.2 -13.6,33.6 c -8.4,8.4 -21,13.6 -33.6,13.6 c -12.6,0 -25.2,-5.2 -33.6,-13.6 l -115.5,-115.5 z"
         inkscape:connector-curvature="0"
         style="fill:#2e6da4;fill-opacity:1" />
      <path
         id="path4489"
         d="m 713.4,408.9 v 0 l 9.4,-9.4 l 115.5,115.5 c 7.3,7.3 11.5,16.8 11.5,27.3 c 0,10.5 -4.2,19.9 -11.5,27.3 c -1,1 -3.1,2.1 -4.2,2.1 c -2.1,0 -3.1,-1 -4.2,-2.1 c -2.1,-2.1 -2.1,-7.3 0,-9.4 c 5.2,-4.2 7.3,-11.5 7.3,-17.8 c 0,-7.3 -2.1,-13.6 -7.3,-17.8 z"
         inkscape:connector-curvature="0"
         style="fill:#ffffff;fill-opacity:1" />
      <g
         id="g4495">
        <path
           id="path4491"
           d="m 661.9,460.4 l 68.2,-68.2 l -5.2,-5.2 c -3.1,-3.1 -7.3,-5.2 -11.5,-5.2 c -4.2,0 -8.4,2.1 -11.5,5.2 l -44.2,44 c -3.1,3.1 -5.2,7.3 -5.2,11.5 c 0,4.2 2.1,8.4 5.2,11.5 z"
           inkscape:connector-curvature="0"
           style="fill:#2e6da4;fill-opacity:1" />
        <path
           id="path4493"
           d="m 275.6,223.1 c 0,-119.7 97.6,-217.3 217.3,-217.3 c 119.7,0 217.3,97.6 217.3,217.3 c 0,119.7 -97.6,217.3 -217.3,217.3 c -120.7,0 -217.3,-97.6 -217.3,-217.3 z"
           inkscape:connector-curvature="0"
           style="fill:#2e6da4;fill-opacity:1" />
      </g>
      <path
         id="path4497"
         d="m 491.9,416.3 c 107.1,0 193.1,-86.1 193.1,-193.2 c 0,-107.1 -86,-193.2 -193.1,-193.2 c -107.1,0 -193.2,86.1 -193.2,193.2 c 0,107.1 87.1,193.2 193.2,193.2 z"
         inkscape:connector-curvature="0"
         style="fill:#2e6da4;fill-opacity:1" />
      <path
         id="path4499"
         d="m 491.9,401.6 c 98.7,0 177.4,-79.8 177.4,-177.4 c 0,-97.6 -79.8,-177.5 -177.4,-177.5 c -97.6,0 -177.4,79.8 -177.4,177.4 c -0.1,97.7 79.7,177.5 177.4,177.5 z"
         inkscape:connector-curvature="0"
         style="fill:#ffffff;fill-opacity:1" />
      <g
         id="g4505"
         style="fill:#2e6da4;fill-opacity:1">
        <path
           id="path4501"
           d="m 497.1,74 c -3.1,-4.2 -8.4,-7.3 -13.6,-7.3 c -24.1,1 -48.3,8.4 -69.3,21 c -7.3,4.2 -10.5,13.6 -5.2,22 c 4.2,7.3 13.6,10.5 21,5.2 c 16.8,-9.4 35.7,-15.7 54.6,-16.8 c 8.4,0 15.7,-7.3 14.7,-16.8 c -0.1,-2 -1.1,-5.2 -2.2,-7.3 z"
           inkscape:connector-curvature="0"
           style="fill:#2e6da4;fill-opacity:1" />
        <path
           id="path4503"
           d="m 396.3,126.5 c -1,-1 -2.1,-2.1 -3.1,-3.1 c -6.3,-5.2 -16.8,-4.2 -22,2.1 c -15.7,19.9 -27.3,43 -31.5,68.2 c -5.2,29.4 -3.1,59.8 8.4,88.2 c 3.1,8.4 12.6,11.5 21,8.4 c 8.4,-3.1 11.5,-12.6 8.4,-19.9 c -9.4,-22 -11.5,-46.2 -7.3,-70.3 c 4.2,-19.9 12.6,-38.8 25.2,-54.6 c 4.1,-6.4 4.1,-13.7 0.9,-19 z"
           inkscape:connector-curvature="0"
           style="fill:#2e6da4;fill-opacity:1" />
      </g>
    </g>
  </g>
</svg>
