<?xml version="1.0" encoding="UTF-8" standalone="no"?>
<!-- Created with Inkscape (http://www.inkscape.org/) -->

<svg
   xmlns:dc="http://purl.org/dc/elements/1.1/"
   xmlns:cc="http://creativecommons.org/ns#"
   xmlns:rdf="http://www.w3.org/1999/02/22-rdf-syntax-ns#"
   xmlns:svg="http://www.w3.org/2000/svg"
   xmlns="http://www.w3.org/2000/svg"
   xmlns:sodipodi="http://sodipodi.sourceforge.net/DTD/sodipodi-0.dtd"
   xmlns:inkscape="http://www.inkscape.org/namespaces/inkscape"
   width="206.17444mm"
   height="206.56372mm"
   viewBox="0 0 206.17444 206.56372"
   version="1.1"
   id="svg8"
   inkscape:version="0.92.1 r15371"
   sodipodi:docname="loupeB_m.svg">
  <defs
     id="defs2" />
  <sodipodi:namedview
     id="base"
     pagecolor="#ffffff"
     bordercolor="#666666"
     borderopacity="1.0"
     inkscape:pageopacity="0.0"
     inkscape:pageshadow="2"
     inkscape:zoom="0.24748737"
     inkscape:cx="770.1746"
     inkscape:cy="486.69264"
     inkscape:document-units="mm"
     inkscape:current-layer="g4525"
     showgrid="false"
     inkscape:window-width="1920"
     inkscape:window-height="1028"
     inkscape:window-x="-8"
     inkscape:window-y="22"
     inkscape:window-maximized="1"
     fit-margin-top="0"
     fit-margin-left="0"
     fit-margin-right="0"
     fit-margin-bottom="0" />
  <metadata
     id="metadata5">
    <rdf:RDF>
      <cc:Work
         rdf:about="">
        <dc:format>image/svg+xml</dc:format>
        <dc:type
           rdf:resource="http://purl.org/dc/dcmitype/StillImage" />
        <dc:title></dc:title>
      </cc:Work>
    </rdf:RDF>
  </metadata>
  <g
     inkscape:label="Layer 1"
     inkscape:groupmode="layer"
     id="layer1"
     transform="translate(-2.4654203,-40.253437)">
    <g
       id="g4525"
       transform="matrix(0.50917015,0,0,0.50917015,-183.07521,-3.050576)">
      <g
         id="g4513"
         transform="matrix(5.0914375,0,0,5.0914375,-2119.7579,-866.69619)">
        <polygon
           transform="matrix(0.13650889,0,0,0.13650889,450.28672,186.13864)"
           style="fill:#2e6da4;fill-opacity:1"
           points="624.1,389 638.8,403.7 655.6,420.5 661.9,426.8 695.5,393.2 657.7,355.4 "
           id="polygon4485" />
        <path
           style="fill:#2e6da4;fill-opacity:1;stroke-width:0.1365089"
           inkscape:connector-curvature="0"
           d="m 549.81536,239.81394 l 15.76678,15.76678 c 1.14667,1.14667 1.85652,2.86669 1.85652,4.5867 c 0,1.85652 -0.70985,3.44002 -1.85652,4.58669 c -1.14668,1.14668 -2.86669,1.85653 -4.5867,1.85653 c -1.72002,0 -3.44003,-0.70985 -4.5867,-1.85653 l -15.76678,-15.76677 z"
           id="path4487" />
        <path
           sodipodi:nodetypes="cccsacsasccc"
           style="fill:#ffffff;fill-opacity:1;stroke-width:0.1365089"
           inkscape:connector-curvature="0"
           d="m 547.67217,241.95713 v 0 l 0.55483,-0.55483 l 15.76678,15.76677 c 0.99652,0.99652 1.75972,2.30609 1.83856,3.67296 c 0.0623,1.08078 -0.11369,2.04191 -1.11021,3.05208 c -0.13651,0.13651 -0.35966,0.28667 -0.57334,0.28667 c -0.21367,0 -0.21922,-0.28627 -0.19714,-0.44789 c 0.0497,-0.36422 0.45471,-0.52944 0.69863,-0.85326 c 0.42209,-0.56033 0.57719,-1.03065 0.53076,-2.19698 c -0.0464,-1.23798 -0.93157,-2.21479 -1.60558,-2.93144 z"
           id="path4489" />
        <g
           transform="matrix(0.13650889,0,0,0.13650889,450.28672,186.13864)"
           id="g4495">
          <path
             style="fill:#2e6da4;fill-opacity:1"
             inkscape:connector-curvature="0"
             d="m 661.9,460.4 l 68.2,-68.2 l -5.2,-5.2 c -3.1,-3.1 -7.3,-5.2 -11.5,-5.2 c -4.2,0 -8.4,2.1 -11.5,5.2 l -44.2,44 c -3.1,3.1 -5.2,7.3 -5.2,11.5 c 0,4.2 2.1,8.4 5.2,11.5 z"
             id="path4491" />
          <path
             style="fill:#2e6da4;fill-opacity:1"
             inkscape:connector-curvature="0"
             d="m 275.6,223.1 c 0,-119.7 97.6,-217.3 217.3,-217.3 c 119.7,0 217.3,97.6 217.3,217.3 c 0,119.7 -97.6,217.3 -217.3,217.3 c -120.7,0 -217.3,-97.6 -217.3,-217.3 z"
             id="path4493" />
        </g>
        <path
           style="fill:#2e6da4;fill-opacity:1;stroke-width:0.1365089"
           inkscape:connector-curvature="0"
           d="m 517.43545,242.9673 c 14.6201,0 26.35987,-11.75342 26.35987,-26.37352 c 0,-14.62011 -11.73977,-26.37352 -26.35987,-26.37352 c -14.6201,0 -26.37352,11.75341 -26.37352,26.37352 c 0,14.6201 11.88993,26.37352 26.37352,26.37352 z"
           id="path4497" />
        <path
           style="fill:#ffffff;fill-opacity:1;stroke-width:0.1365089"
           inkscape:connector-curvature="0"
           d="m 517.43545,240.96062 c 13.47343,0 24.21668,-10.89341 24.21668,-24.21668 c 0,-13.32327 -10.89341,-24.23033 -24.21668,-24.23033 c -13.32327,0 -24.21668,10.89341 -24.21668,24.21667 c -0.0136,13.33693 10.87976,24.23034 24.21668,24.23034 z"
           id="path4499" />
        <g
           transform="matrix(0.13650889,0,0,0.13650889,450.28672,186.13864)"
           style="fill:#2e6da4;fill-opacity:1"
           id="g4505">
          <path
             style="fill:#2e6da4;fill-opacity:1"
             inkscape:connector-curvature="0"
             d="m 497.1,74 c -3.1,-4.2 -8.4,-7.3 -13.6,-7.3 c -24.1,1 -48.3,8.4 -69.3,21 c -7.3,4.2 -10.5,13.6 -5.2,22 c 4.2,7.3 13.6,10.5 21,5.2 c 16.8,-9.4 35.7,-15.7 54.6,-16.8 c 8.4,0 15.7,-7.3 14.7,-16.8 c -0.1,-2 -1.1,-5.2 -2.2,-7.3 z"
             id="path4501" />
          <path
             style="fill:#2e6da4;fill-opacity:1"
             inkscape:connector-curvature="0"
             d="m 396.3,126.5 c -1,-1 -2.1,-2.1 -3.1,-3.1 c -6.3,-5.2 -16.8,-4.2 -22,2.1 c -15.7,19.9 -27.3,43 -31.5,68.2 c -5.2,29.4 -3.1,59.8 8.4,88.2 c 3.1,8.4 12.6,11.5 21,8.4 c 8.4,-3.1 11.5,-12.6 8.4,-19.9 c -9.4,-22 -11.5,-46.2 -7.3,-70.3 c 4.2,-19.9 12.6,-38.8 25.2,-54.6 c 4.1,-6.4 4.1,-13.7 0.9,-19 z"
             id="path4503" />
        </g>
      </g>
    </g>
  </g>
</svg>
