<?xml version="1.0" encoding="utf-8"?>
<!-- Generator: Adobe Illustrator 17.1.0, SVG Export Plug-In . SVG Version: 6.00 Build 0)  -->
<!DOCTYPE svg PUBLIC "-//W3C//DTD SVG 1.1//EN" "http://www.w3.org/Graphics/SVG/1.1/DTD/svg11.dtd">
<svg version="1.1"
	 id="svg8" xmlns:rdf="http://www.w3.org/1999/02/22-rdf-syntax-ns#" xmlns:cc="http://creativecommons.org/ns#" xmlns:dc="http://purl.org/dc/elements/1.1/" xmlns:svg="http://www.w3.org/2000/svg" xmlns:sodipodi="http://sodipodi.sourceforge.net/DTD/sodipodi-0.dtd" xmlns:inkscape="http://www.inkscape.org/namespaces/inkscape" sodipodi:docname="loupeB.svg" inkscape:version="0.92.1 r15371"
	 xmlns="http://www.w3.org/2000/svg" xmlns:xlink="http://www.w3.org/1999/xlink" x="0px" y="0px" viewBox="0 0 840.9 842.5"
	 enable-background="new 0 0 840.9 842.5" xml:space="preserve">
<sodipodi:namedview  bordercolor="#666666" showgrid="false" fit-margin-top="0" showborder="true" inkscape:cy="662.87481" inkscape:cx="743.34309" inkscape:zoom="0.49497475" borderopacity="1.0" pagecolor="#ffffff" fit-margin-left="0" id="base" inkscape:showpageshadow="false" inkscape:pagecheckerboard="false" fit-margin-bottom="0" fit-margin-right="0" inkscape:window-maximized="1" inkscape:window-y="22" inkscape:current-layer="g4525" inkscape:pageshadow="2" inkscape:document-units="mm" inkscape:pageopacity="0.0" inkscape:window-height="1028" inkscape:window-x="-8" inkscape:window-width="1920">
	</sodipodi:namedview>
<g id="layer1" transform="translate(42.747917,0.09738913)" inkscape:label="Layer 1" inkscape:groupmode="layer">
	<g id="g4525" transform="matrix(0.50917015,0,0,0.50917015,-183.07521,-3.050576)">
		<polygon id="polygon4485" fill="#2E6DA4" points="1352.8,1181.3 1371.5,1199.7 1467.7,1105.4 1357.8,995.4 1263.5,1091.7 
			1305.1,1133.7 		"/>
		<path id="path4487" inkscape:connector-curvature="0" fill="#2E6DA4" d="M1562,1103.5l328,329.9c23.8,23.8,39.3,58.6,39.3,94.3
			c0,38.6-15,72.3-38.8,96.1c-23.8,23.8-59,39.4-94.8,39.4s-72.4-15.5-96.2-39.3l-328-328L1562,1103.5z"/>
		<path id="path4489" sodipodi:nodetypes="cccsacsasccc" inkscape:connector-curvature="0" fill="#FFFFFF" d="M1516.8,1148.6
			l11.8-11.8l328,328c20.7,20.7,35.7,46.2,37.3,74.6c1.3,22.4,0,45.2-23.6,64.8c-2.8,2.8-7.3,5.9-11.8,5.9c-4.4,0-6.4-6.5-5.9-9.8
			c0-5.9,10.6-11,15.7-17.7c8.8-11.6,10.8-21,9.8-45.2c-1-25.7-17.4-46-31.4-60.9L1516.8,1148.6z"/>
		<path id="path4491" inkscape:connector-curvature="0" fill="#2E6DA4" d="M1371.5,1295.9l190.5-192.4l-15.7-15.7
			c-8.8-8.8-19.5-13.7-31.4-13.7s-22.6,5-31.4,13.7l-127.7,125.7c-8.8,8.8-13.7,21.5-13.7,33.4s5,22.6,13.7,31.4L1371.5,1295.9z"/>
		<path id="path4493" inkscape:connector-curvature="0" fill="#2E6DA4" d="M275.6,621.8c0-339.3,276.7-616,616-616
			s616,276.7,616,616s-276.7,616-616,616C549.4,1237.7,275.6,961.1,275.6,621.8L275.6,621.8z"/>
		<path id="path4499" inkscape:connector-curvature="0" fill="#FFFFFF" d="M888.7,1127.8c279.8,0,502.9-226.2,502.9-502.9
			s-226.2-503.1-502.9-503.1S385.9,347.9,385.9,624.6C385.6,901.5,611.8,1127.8,888.7,1127.8z"/>
		<path id="path4501" inkscape:connector-curvature="0" fill="#2E6DA4" d="M903.5,199.1c-8.8-11.9-23.8-20.7-38.6-20.7
			c-68.3,2.8-136.9,23.8-196.4,59.5c-20.7,11.9-29.8,38.6-14.7,62.4c11.9,20.7,38.6,29.8,59.5,14.7c47.6-26.6,101.2-44.5,154.8-47.6
			c23.8,0,44.5-20.7,41.7-47.6C909.4,214.1,906.6,205.1,903.5,199.1L903.5,199.1z"/>
		<path id="path4503" inkscape:connector-curvature="0" fill="#2E6DA4" d="M617.7,347.9c-2.8-2.8-6-6-8.8-8.8
			c-17.9-14.7-47.6-11.9-62.4,6c-44.5,56.4-77.4,121.9-89.3,193.3c-14.7,83.3-8.8,169.5,23.8,250c8.8,23.8,35.7,32.6,59.5,23.8
			s32.6-35.7,23.8-56.4c-26.6-62.4-32.6-131-20.7-199.3c11.9-56.4,35.7-110,71.4-154.8C626.8,383.7,626.8,363,617.7,347.9z"/>
	</g>
</g>
</svg>
